<?xml version="1.0" encoding="UTF-8" standalone="no"?> <!-- Created with Vectornator for iOS (http://vectornator.io/) --><!DOCTYPE svg PUBLIC "-//W3C//DTD SVG 1.1//EN" "http://www.w3.org/Graphics/SVG/1.1/DTD/svg11.dtd">
<svg style="fill-rule:evenodd;clip-rule:evenodd;stroke-linecap:round;stroke-linejoin:round;" xmlns:vectornator="http://vectornator.io" xmlns:xlink="http://www.w3.org/1999/xlink" xmlns="http://www.w3.org/2000/svg" xml:space="preserve" version="1.1" viewBox="0 0 11749 5780">
<metadata>
<vectornator:setting key="DynamicGuides" value="1"/>
<vectornator:setting key="CMYKEnabledKey" value="0"/>
<vectornator:setting key="Units" value="Points"/>
<vectornator:setting key="RulersVisible" value="1"/>
<vectornator:setting key="SnapToGuides" value="1"/>
<vectornator:setting key="GridSpacing" value="36"/>
</metadata>
<defs/>
<g id="Untitled" vectornator:layerName="Untitled">
<path stroke="#fbfcfc" stroke-width="1" d="M5.8745+2329.24C94.7016+2595.72+460.135+2505.47+687.317+2505.47C769.726+2505.47+852.845+2495.51+934.046+2481.98C974.734+2475.19+1010.27+2429.11+1051.54+2429.11C1058.51+2408.17+1175.11+2276.3+1201.34+2267.56C1201.34+2261.68+1201.34+2261.68+1201.34+2255.81C1252.22+2238.85+1338.07+2031.16+1263.02+2006.14C1167.73+1974.38+759.379+2086.91+640.321+2100.13C617.674+1986.9+744.31+1718.86+795.995+1615.49C873.738+1460+906.834+1284.7+978.104+1127.9C1106.9+844.56+1380.74+361.994+1274.77+44.0588C1268.89+44.0588+1268.89+44.0588+1263.02+44.0588C1233.13-45.5924+1075.54+14.6863+981.042+14.6863C817.224+14.6863+653.6+85.0567+578.638+234.98C294.874+802.509+66.3761+1692.31+5.8745+2317.49C4.40587+1161.68+4.40587+1161.68+2.93725+5.8745C4517.49+4.40587+4517.49+4.40587+9032.04+2.93725C9030.58+8.81175+9030.58+8.81175+9029.11+14.6863C8781.94+14.6863+8504.38+252.776+8368.23+422.964C8322.76+479.798+8186.12+588.026+8186.12+669.693C8082.12+704.359+8027.21+1192.62+7957.01+1216.02C7957.01+1040.1+7780.78+879.728+7780.78+722.564C7763.11+716.675+7719.38+639+7704.41+622.697C7569.89+476.222+7505.44+425.901+7307.88+425.901C7047.38+425.901+6980.18+847.845+6905.47+1022.16C6701.48+1498.15+7185.31+2269.15+7398.93+2696.4C7490.17+2878.86+7516.64+3181.59+7498.8+3377.84C7496.04+3408.15+7442.25+3658.23+7466.49+3668.63C7517.95+3690.68+7569.47+3514.85+7610.41+3501.2C7610.41+3464.89+7669.16+3441.48+7669.16+3401.34C7697.69+3391.83+7792.52+3263.57+7792.52+3236.85C7815.07+3229.33+7823.87+3183.32+7857.14+3172.23C7857.14+3071.86+8146.42+2915.34+8177.3+2822.7C8218.67+2850.28+8015.76+3163.64+8015.76+3225.1C8078.09+3232.03+8100.11+3145.79+8159.68+3145.79C8169.47+3116.43+8733.38+2743.7+8785.31+2761.02C8785.31+2807.12+8697.72+2841.7+8682.51+2887.32C8665.89+2887.32+8658.38+2895.09+8653.14+2910.81C8647.26+2910.81+8647.26+2910.81+8641.39+2910.81C8627.84+2951.45+8572.71+2958.25+8559.15+2998.93C8541+2998.93+8532.71+3007.23+8532.71+3025.37C8693.76+3048.38+8889.75+2929.56+9058.48+2910.81C9430.93+2869.43+9817.44+2831.87+10171.7+2761.02C10297.7+2735.81+10471.1+2739.58+10585.8+2675.83C10642.9+2644.16+11120.5+2440.85+11173.3+2440.85C11178.8+2424.47+11371.3+2317.49+11390.7+2317.49C11394+2307.43+11419.2+2288.12+11431.8+2288.12C11437.8+2269.95+11465+2276.49+11472.9+2252.87C11488+2252.87+11509.1+2238.21+11514+2223.5C11538+2223.5+11532.8+2200+11555.1+2200C11586.8+2105.02+11708.5+2025.36+11749+1876.9C11750.5+3828.71+11750.5+3828.71+11751.9+5780.51C6999.47+5780.51+6999.47+5780.51+2247+5780.51C2417.74+5761.54+2550.76+5699.21+2684.65+5624.83C2726.76+5601.44+2746.25+5524.02+2787.45+5510.28C2787.45+5495.36+2791+5491.47+2805.07+5486.78C2805.07+5480.91+2805.07+5480.91+2805.07+5475.03C2858.05+5457.38+2916.03+5294.23+2946.06+5234.18C3047.54+5031.22+3257.41+4645.33+3257.41+4435.25C3295.71+4422.48+3308.1+4255.04+3322.03+4217.89C3369.08+4092.42+3485.47+3799.11+3254.47+3809.61C3063.18+3818.31+2807.75+3909.74+2669.96+4047.53C2527.45+4190.04+2498.33+4540.57+2273.43+4596.8C2117.04+4635.89+2157.76+4550.41+2059.01+4517.49C2059.01+4427.83+2000.27+4342.73+2000.27+4235.51C2000.27+4087.11+2220.48+3331.85+2364.49+3283.85C2364.49+3241.57+2541.61+3069.43+2578.91+3069.43C2583.6+3055.35+2587.49+3051.8+2602.4+3051.8C2607.09+3037.73+2610.98+3034.18+2625.9+3034.18C2642.95+2983.04+2776.79+2957.36+2825.63+2951.94C2871.43+3089.33+2849.48+3296.19+2793.32+3436.58C2776.72+3478.09+2711.18+3580.29+2722.83+3624.57C2769.43+3801.63+3207+3495.47+3239.79+3418.96C3242.75+3412.05+3268.85+3385.77+3275.03+3383.71C3275.03+3377.84+3275.03+3377.84+3275.03+3371.96C3370.62+3340.1+3380.77+2953.01+3380.77+2919.63C3380.77+2866.42+3316.16+2814.9+3316.16+2772.76C3275.51+2759.21+3259.15+2693.46+3213.35+2693.46C3196.86+2643.98+3018.38+2642.41+2990.12+2640.59C2778.31+2626.92+2484.09+2674.99+2302.8+2810.95C1746.58+3228.12+1178.41+3736.65+1248.33+4505.74C1283.52+4892.85+1540.5+5102+1920.96+5102C1999.76+5102+2258.03+5030.73+2285.18+4949.27C2291.06+4949.27+2291.06+4949.27+2296.93+4949.27C2302.3+4933.15+2319.73+4939.61+2326.3+4919.89C2366.46+4919.89+2453.94+4822.93+2479.04+4790.65C2483.44+4792.12+2483.44+4792.12+2487.85+4793.59C2487.85+4863.31+2346.04+5455.23+2291.06+5466.22C2258.57+5368.77+2034.56+5295.94+1997.33+5184.25C1868.38+5184.25+1462.8+5384.62+1606.68+5557.28C1737.2+5713.91+1927.97+5742.55+2117.76+5780.51C1061.82+5781.98+1061.82+5781.98+5.8745+5783.45C5.8745+4056.34+5.8745+4056.34+5.8745+2329.24Z" fill="none" stroke-linecap="round" opacity="1" stroke-linejoin="round"/>
<path stroke="#bd0215" stroke-width="1" d="M9237.65+1480.37C9237.65+1505.75+9214.15+1513.74+9214.15+1539.12C9183.69+1549.27+9189.81+1594.23+9161.28+1603.74C9161.28+1696.32+9008.55+1773.92+9008.55+1868.09C8994.47+1872.78+8990.92+1876.67+8990.92+1891.59C8973.33+1897.45+8926.3+1965.88+8926.3+1985.58C8906.65+1992.13+8891.06+2011.99+8891.06+2032.58C8877.36+2037.14+8877.42+2050.83+8861.68+2056.08C8861.68+2074.9+8850.01+2085.42+8832.31+2091.32C8832.31+2115.15+8813.34+2130.93+8791.19+2138.32C8791.19+2195.31+8673.7+2229.83+8673.7+2291.06C8620.92+2308.65+8600.24+2407.58+8544.46+2426.17C8544.46+2499.41+8397.6+2517.05+8397.6+2602.4C8304.32+2633.49+8255.64+2738.49+8186.12+2808.01C8193.38+2822.53+8193.37+2815.61+8189.05+2828.57C8183.18+2825.63+8183.18+2825.63+8177.3+2822.7C8144.42+2921.35+7857.14+3060.71+7857.14+3172.23C7830.2+3181.21+7804.27+3201.85+7804.27+3230.98C7746.84+3250.12+7724.68+3382.83+7669.16+3401.34C7669.16+3438.23+7610.41+3461.98+7610.41+3501.2C7567.91+3515.37+7512.26+3688.24+7466.49+3668.63C7437.64+3656.26+7490.08+3414.96+7492.92+3383.71C7510.33+3192.27+7505.11+2873.35+7398.93+2696.4C7091.01+2183.2+6753.46+1513.09+6928.97+898.798C6973.52+742.878+7109.75+513.217+7249.13+443.525C7399.25+368.464+7769.03+538.972+7769.03+716.689C7833.85+738.297+7935.32+1150.95+7957.01+1216.02C7962.88+1214.06+7968.76+1212.11+7974.63+1210.15C7974.63+1149.21+8134.66+686.844+8186.12+669.693C8186.12+589.112+8592.5+167.423+8653.14+167.423C8675.56+100.172+9029.83+11.789+9032.04+2.93725C9653.32+25.1257+9668.51+589.294+9443.26+1039.79C9409.06+1108.18+9301.1+1459.23+9237.65+1480.37Z" fill="#bd0215" stroke-linecap="round" opacity="1" stroke-linejoin="round"/>
<path stroke="#f0f101" stroke-width="1" d="M8159.68+3145.79C8107.87+3145.79+8076.75+3228.04+8018.69+3228.04C8010.78+3140.95+8115.62+3079.77+8115.62+2996C8139.96+2987.88+8199.14+2834.05+8186.12+2808.01C8255.64+2738.49+8304.32+2633.49+8397.6+2602.4C8397.6+2519.16+8544.46+2504.92+8544.46+2426.17C8604.79+2406.06+8620.56+2308.77+8673.7+2291.06C8673.7+2233.91+8791.19+2198.66+8791.19+2138.32C8813.34+2130.93+8832.31+2115.15+8832.31+2091.32C8850.01+2085.42+8861.68+2074.9+8861.68+2056.08C8877.42+2050.83+8877.36+2037.14+8891.06+2032.58C8891.06+2015.75+8910.13+1990.97+8926.3+1985.58C8926.3+1951.7+8979.17+1935.03+8979.17+1897.46C8995.29+1892.09+8988.83+1874.66+9008.55+1868.09C9008.55+1777.83+9161.28+1694.72+9161.28+1603.74C9191.75+1593.58+9185.63+1548.63+9214.15+1539.12C9214.15+1513.74+9237.65+1505.75+9237.65+1480.37C9256.01+1474.25+9284.65+1415.37+9284.65+1398.13C9422.95+1352.03+9428.96+737.25+9681.18+737.25C9728.82+594.311+10357.2+539.615+10439+537.517C10437.5+541.923+10437.5+541.923+10436+546.329C10482.9+555.691+10534.7+602.136+10574.1+602.136C10596.8+670.19+10743.4+725.181+10765+822.43C10802+989.009+10731+1090.07+10712.2+1221.9C10697.2+1224.89+10676.9+1257.8+10676.9+1274.77C10659.7+1280.51+10668.4+1274.63+10665.2+1304.14C10647.7+1307.64+10624+1342.74+10624+1362.88C10610.3+1367.45+10610.4+1381.14+10594.7+1386.38C10594.7+1395.19+10594.7+1395.19+10594.7+1404.01C10574.6+1410.68+10561.9+1465.84+10535.9+1474.5C10544.8+1518.96+10447.8+1547+10447.8+1597.86C10415.2+1608.72+10247.5+1781.53+10233.4+1824.03C10213.5+1824.03+10138.9+1895.86+10133.5+1912.15C10077.1+1912.15+10035.2+2029.64+9980.78+2029.64C9956.42+2102.69+9804.34+2124.22+9781.04+2194.13C9767.35+2194.13+9399.84+2427.2+9399.2+2429.11C9381.8+2429.11+9305.02+2470.8+9299.33+2487.85C9161.71+2487.85+9012.62+2705.21+8864.62+2705.21C8830.52+2807.5+8212.67+2986.82+8159.68+3145.79Z" fill="#f0f101" stroke-linecap="round" opacity="1" stroke-linejoin="round"/>
<path stroke="#040404" stroke-width="1" d="M2787.45+5510.28C2787.45+5495.36+2791+5491.47+2805.07+5486.78C2805.07+5480.91+2805.07+5480.91+2805.07+5475.03C2858.05+5457.38+2916.03+5294.23+2946.06+5234.18C3047.54+5031.22+3257.41+4645.33+3257.41+4435.25C3295.71+4422.48+3308.1+4255.04+3322.03+4217.89C3369.08+4092.42+3485.47+3799.11+3254.47+3809.61C3063.18+3818.31+2807.75+3909.74+2669.96+4047.53C2527.45+4190.04+2498.33+4540.57+2273.43+4596.8C2117.04+4635.89+2157.76+4550.41+2059.01+4517.49C2059.01+4427.83+2000.27+4342.73+2000.27+4235.51C2000.27+4087.11+2220.48+3331.85+2364.49+3283.85C2364.49+3241.57+2541.61+3069.43+2578.91+3069.43C2583.6+3055.35+2587.49+3051.8+2602.4+3051.8C2607.09+3037.73+2610.98+3034.18+2625.9+3034.18C2642.95+2983.04+2776.79+2957.36+2825.63+2951.94C2871.43+3089.33+2849.48+3296.19+2793.32+3436.58C2776.72+3478.09+2711.18+3580.29+2722.83+3624.57C2769.43+3801.63+3207+3495.47+3239.79+3418.96C3242.75+3412.05+3268.85+3385.77+3275.03+3383.71C3275.03+3377.84+3275.03+3377.84+3275.03+3371.96C3370.62+3340.1+3380.77+2953.01+3380.77+2919.63C3380.77+2866.42+3316.16+2814.9+3316.16+2772.76C3275.51+2759.21+3259.15+2693.46+3213.35+2693.46C3196.86+2643.98+3018.38+2642.41+2990.12+2640.59C2778.31+2626.92+2484.09+2674.99+2302.8+2810.95C1746.58+3228.12+1178.41+3736.65+1248.33+4505.74C1283.52+4892.85+1540.5+5102+1920.96+5102C1999.76+5102+2258.03+5030.73+2285.18+4949.27C2291.06+4949.27+2291.06+4949.27+2296.93+4949.27C2302.3+4933.15+2319.73+4939.61+2326.3+4919.89C2366.46+4919.89+2453.94+4822.93+2479.04+4790.65C2483.44+4792.12+2483.44+4792.12+2487.85+4793.59C2487.85+4863.31+2346.04+5455.23+2291.06+5466.22C2258.57+5368.77+2034.56+5295.94+1997.33+5184.25C1852.14+5184.25+1566.91+5331.3+1583.18+5510.28C1594.85+5638.68+1838.16+5724.58+1944.46+5748.2C2124.65+5788.24+2477.75+5814.1+2625.9+5665.96C2653.85+5638.01+2751.21+5522.36+2787.45+5510.28Z" fill="#040404" stroke-linecap="round" opacity="1" stroke-linejoin="round"/>
<path stroke="#149e43" stroke-width="1" d="M11572.8+2188.25C11566.9+2188.25+11566.9+2188.25+11561+2188.25C11558.3+2196.55+11523+2223.5+11514+2223.5C11508+2241.47+11491.8+2252.87+11472.9+2252.87C11467.1+2270.13+11455.3+2276.37+11437.7+2276.37C11432.3+2292.48+11414.9+2286.02+11408.3+2305.74C11402.4+2305.74+11402.4+2305.74+11396.5+2305.74C11388.9+2328.55+11286.6+2387.98+11261.4+2387.98C11254.7+2408.19+11097.9+2487.85+11073.4+2487.85C11063.6+2517.39+10740.3+2610.47+10697.5+2628.84C10271.6+2811.35+9753.97+2823.75+9287.58+2875.57C9109.36+2895.37+8931.71+2927.73+8764.75+2975.43C8703.16+2993.03+8622.31+3034.18+8559.15+3034.18C8519.34+3034.18+8530.09+2998.93+8559.15+2998.93C8572.98+2957.43+8628.98+2948.04+8641.39+2910.81C8647.26+2910.81+8647.26+2910.81+8653.14+2910.81C8658.38+2895.09+8665.89+2887.32+8682.51+2887.32C8707.78+2811.51+8845.13+2763.68+8864.62+2705.21C9012.96+2705.21+9160.58+2487.85+9299.33+2487.85C9305.21+2470.23+9380.98+2429.11+9399.2+2429.11C9400.35+2425.65+9766.09+2194.13+9781.04+2194.13C9805.78+2119.93+9956.82+2101.49+9980.78+2029.64C10034.4+2029.64+10075.2+1912.15+10133.5+1912.15C10139.8+1893.3+10214+1824.03+10233.4+1824.03C10247.4+1782.01+10418.3+1607.71+10447.8+1597.86C10447.8+1505.22+10602.2+1471.09+10662.2+1453.94C10797+1415.43+11487.4+1309.45+11549.3+1495.06C11576.4+1495.06+11581.2+1519.42+11605.1+1527.37C11605.1+1533.24+11605.1+1533.24+11605.1+1539.12C11767.6+1593.29+11771.4+1916.02+11704.9+2026.7C11675+2076.6+11590.3+2135.54+11572.8+2188.25Z" fill="#149e43" stroke-linecap="round" opacity="1" stroke-linejoin="round"/>
<path stroke="#040404" stroke-width="1" d="M5090.25+2796.26C5216.88+2838.47+5147.88+3407.58+5008.01+3454.21C5008.01+3546.91+4806.41+3618.43+4781.84+3692.12C4706.06+3692.12+4595.76+3870.55+4493.99+3797.86C4453.21+3768.74+4508.22+3662.38+4532.18+3630.44C4643.93+3481.43+4693.33+3228.77+4726.04+3048.87C4735.76+2995.4+4787.25+2833.54+4711.35+2822.7C4707.51+2834.21+4661.83+2886.2+4649.67+2890.25C4649.67+2896.13+4649.67+2896.13+4649.67+2902C4606.39+2916.43+4514.55+3135.61+4514.55+3178.1C4499.52+3183.11+4455.81+3314.21+4455.81+3336.72C4425.66+3346.77+4392.8+3524.14+4385.31+3554.07C4326.94+3787.57+4263.3+3994.72+4244.33+4241.39C4298.89+4259.58+4454.38+4037.64+4511.62+3985.85C4709.15+3807.13+4906.17+3653.28+5154.87+3736.18C5154.87+3742.06+5154.87+3742.06+5154.87+3747.93C5233.63+3774.18+5180.88+3990.56+5172.5+4053.41C5152.65+4202.25+5131.38+4341.6+5131.38+4493.99C5131.38+4679.97+5264.32+4794.22+5204.81+4972.76C5198.93+4972.76+5198.93+4972.76+5193.06+4972.76C5155.93+5084.14+4781.66+5126.83+4717.22+5078.51C4540.16+4945.71+4488.07+4655.7+4555.67+4452.87C4514.15+4446.94+4427.38+4569.41+4400+4596.8C4331.25+4665.55+4021.92+4914.49+4000.53+4978.64C3985.62+4978.64+3981.73+4982.19+3977.04+4996.26C3971.16+4996.26+3971.16+4996.26+3965.29+4996.26C3944.41+5058.91+3697.39+5134.88+3648.06+5090.25C3563.95+5014.15+3539.87+4910.81+3533.51+4799.47C3499.3+4200.81+3828.61+3461.68+4173.83+2978.37C4341.71+2743.34+4551.07+2591.92+4846.46+2628.84C4912.2+2637.06+5090.25+2726.28+5090.25+2796.26Z" fill="#040404" stroke-linecap="round" opacity="1" stroke-linejoin="round"/>
<path stroke="#050505" stroke-width="1" d="M6681.34+3353.62C6097.63+3358.98+5354.59+4117.34+5354.59+4623.22C5354.59+4848.79+5429.38+5059.36+5663.03+5137.25C5732.66+5160.46+6086.99+5157.7+6127.09+5037.38C6132.97+5037.38+6132.97+5037.38+6138.84+5037.38C6143.53+5023.3+6147.43+5019.75+6162.34+5019.75C6167.04+5005.68+6170.93+5002.12+6185.84+5002.12C6222.04+4893.52+6548.71+4736.01+6597.06+4590.94C6600+4591.92+6605.65+4590.76+6605.88+4593.84C6613.53+4699.46+6589.32+4947.38+6688.12+5046.19C6775.32+5133.39+7086.2+5191.37+7131.66+5055C7149.3+5055+7161.12+5048.76+7166.88+5031.5C7181.79+5031.5+7185.68+5027.95+7190.38+5013.88C7358.84+5013.87+7222.69+4720.13+7222.69+4634.97C7222.69+4529.23+7222.69+4423.49+7222.69+4317.75C7222.69+4129.21+7331.74+3938.84+7096.41+3938.84C7094.71+3933.76+7147.32+3837.04+7152.22+3830.19C7227.07+3725.39+7152.79+3584.01+7081.72+3512.94C6968.58+3399.8+6830.13+3352.26+6681.34+3353.62ZM6489.91+3620.41C6685.32+3622.52+6410.37+4165.66+6423.78+4194.41C6475.46+4305.15+6643.51+4159.63+6714.56+4173.84C6725.76+4176.08+6705.15+4195.29+6696.94+4203.22C6646.14+4252.29+6595.98+4302.04+6544.19+4350.06C6541.92+4352.17+6537.56+4350.81+6535.38+4353C6458.2+4430.17+6203.32+4720.04+6071.28+4588C5842.5+4359.22+6229.77+3688.79+6444.31+3627.5C6461.75+3622.52+6476.88+3620.27+6489.91+3620.41Z" fill="#050505" stroke-linecap="butt" opacity="1" stroke-linejoin="miter"/>
<path stroke="#0b0b0b" stroke-width="1" d="M10587.7+3398.41C10492.8+3399.32+10418.7+3405.9+10403.8+3410.16C9920.14+3548.33+9510.07+3995.75+9372.75+4476.38C9294.96+4748.64+9369.29+4978.31+9604.81+5119.62C9690.38+5170.96+10071.3+5171.08+10115.9+5037.38C10121.8+5037.38+10121.8+5037.38+10127.6+5037.38C10134.2+5017.66+10151.6+5024.11+10157+5008C10201.8+5008+10566.8+4647.99+10585.8+4590.94C10588.8+4591.92+10594.4+4590.76+10594.7+4593.84C10602.2+4698.14+10578.5+4947.74+10676.9+5046.19C10773.7+5142.96+11107.5+5175.92+11155.7+5031.5C11161.6+5031.5+11161.6+5031.5+11167.4+5031.5C11178.3+4998.95+11254.3+4959.87+11279+4931.66C11288.3+4921.04+11225.8+4752.57+11223.2+4728.97C11206.2+4575.41+11211.5+4420.51+11211.5+4264.88C11211.5+4085.06+11303.2+3944.51+11088.1+3935.91C11115.6+3853.55+11238.5+3604.2+11105.8+3559.94C11105.8+3421.83+10796.5+3396.4+10587.7+3398.41ZM10474.5+3623.44C10689.5+3623.02+10395.2+4157.23+10412.6+4194.41C10440.3+4253.86+10577.7+4213.11+10632.8+4197.34C10642.1+4194.7+10712.2+4172.82+10706.3+4182.66C10690.4+4209.13+10284.5+4615.64+10168.8+4626.16C10013.4+4640.28+9985.18+4427.96+10007.2+4317.75C10051.5+4096.44+10216.2+3673.79+10439+3627.5C10452.1+3624.77+10463.9+3623.46+10474.5+3623.44Z" fill="#0b0b0b" stroke-linecap="round" opacity="1" stroke-linejoin="round"/>
<path stroke="#0b0b0b" stroke-width="1" d="M989.853+1122.03C962.503+1131.15+923.988+1278.5+913.485+1310.01C860.438+1469.15+719.626+1675.3+719.626+1844.59C692.301+1853.7+648.457+2063.97+637.383+2097.2C849.087+2109.65+1103.48+1968.63+1295.33+2032.58C1288.68+2085.72+1284.46+2064.6+1295.33+2097.2C1256.45+2110.15+1253.27+2238.5+1201.34+2255.81C1201.34+2261.68+1201.34+2261.68+1201.34+2267.56C1174.58+2276.48+1058.12+2409.34+1051.54+2429.11C1025.13+2429.11+981.144+2466.66+957.543+2476.1C794.463+2541.33+206.152+2572.99+76.3685+2458.48C-82.6068+2318.21+46.0191+1983.61+91.0547+1803.47C210.645+1325.11+333.457+599.815+608.011+187.984C737.578-6.36651+1157.79-67.0443+1307.08+82.243C1366.36+141.523+1280.16+346.341+1254.21+411.215C1187.06+579.067+1143.18+747.522+1077.97+910.548C1054.29+969.743+989.853+1058.93+989.853+1122.03Z" fill="#0b0b0b" stroke-linecap="round" opacity="1" stroke-linejoin="round"/>
<path stroke="#060606" stroke-width="1" d="M2913.75+719.626C2904.06+748.694+2898.61+770.913+2890.25+795.995C2724.95+795.995+2554.87+936.983+2461.42+936.983C2451.54+966.618+2313.44+1101.84+2288.12+1110.28C2288.12+1116.15+2288.12+1116.15+2288.12+1122.03C2162.3+1163.97+2088.38+1711.91+2088.38+1797.6C2088.38+1893.14+2182.38+1973.96+2182.38+2044.33C2200.12+2050.24+2238.7+2089.93+2244.06+2106.01C2249.93+2106.01+2249.93+2106.01+2255.81+2106.01C2263.22+2128.25+2330.27+2150.7+2355.67+2153C2573.84+2172.84+2745.55+1993.41+2758.08+1774.1C2767.91+1602.1+2747.29+1447.2+2640.59+1310.01C2615.06+1277.19+2438.54+1135.09+2470.23+1098.53C2610.92+936.193+2950.06+844.05+3101.74+995.728C3120.09+1014.08+3169.29+1040.19+3169.29+1069.16C3185.71+1074.63+3204.54+1106.1+3204.54+1122.03C3247.26+1136.27+3279.02+1314.52+3280.91+1357.01C3284.39+1435.28+3286.78+1513.64+3286.78+1591.99C3286.78+1737.5+3076.37+2247+2913.75+2247C2907.7+2265.16+2874.22+2265.73+2866.76+2288.12C2808.67+2288.12+2653.36+2394.82+2596.53+2423.23C2365.45+2538.77+1934.62+2505.44+1715.35+2340.99C888.218+1720.64+2091.85+445.658+2913.75+719.626Z" fill="#060606" stroke-linecap="round" opacity="1" stroke-linejoin="round"/>
<path stroke="#020202" stroke-width="1" d="M8274.23+3465.96C8362.76+3495.46+8285.91+4030.13+8244.86+4153.27C8277.03+4163.99+8469.01+3918.26+8485.72+3900.67C8531.49+3852.46+8576.76+3803.75+8623.77+3756.74C8748.17+3632.34+8859.07+3598.13+9034.98+3598.13C9083.89+3598.13+9099.98+3653.09+9137.78+3665.69C9137.78+3671.56+9137.78+3671.56+9137.78+3677.44C9221.31+3705.28+9177.85+4019.09+9173.03+4076.9C9155.51+4287.2+9125.27+4500.42+9155.41+4711.35C9169.08+4807.06+9211.55+4891.57+9220.03+4993.32C9210.23+4996.59+9167.9+5032.22+9164.22+5043.26C9158.35+5043.26+9158.35+5043.26+9152.47+5043.26C9117.84+5147.14+8815.82+5141.77+8747.13+5090.25C8551.9+4943.83+8450.29+4553.1+8556.21+4341.26C8551.8+4336.85+8551.8+4336.85+8547.4+4332.44C8498.68+4381.17+8321.23+4530.9+8321.23+4587.98C8186.3+4632.96+8141.32+4904.47+8015.76+4946.33C8015.76+4961.25+8012.2+4965.14+7998.13+4969.83C7998.13+4993.77+7974.63+4988.64+7974.63+5010.95C7960.56+5015.64+7957.01+5019.53+7957.01+5034.45C7939.02+5040.44+7876.19+5118.29+7871.83+5131.38C7800.28+5131.38+7709.71+5210.99+7619.23+5143.12C7455.58+5020.39+7472.18+4835.83+7504.67+4640.86C7564.3+4283.08+7657.82+3836.37+7886.52+3542.32C7947.57+3463.83+8274.23+3285.2+8274.23+3465.96Z" fill="#020202" stroke-linecap="round" opacity="1" stroke-linejoin="round"/>
<path stroke="#040404" stroke-width="1" d="M6026.28+735.219C6008.94+735.389+5989.84+736.065+5968.5+737.25C5772.09+748.162+5553.8+884.462+5369.47+1078.34C5043.03+1421.69+4823.06+1945.62+5019.75+2273.44C5221.91+2610.37+5708.73+2475.01+5962.62+2305.75C5991.06+2286.79+6069.57+2260.94+6080.09+2229.38C6085.97+2229.38+6085.97+2229.38+6091.84+2229.38C6098.42+2209.66+6115.85+2216.11+6121.22+2200C6215.71+2200+6527.63+1894.76+6315.09+1847.53C6138.12+1808.2+6001.52+2018.62+5845.12+2070.75C5767.32+2096.69+5707.69+2070.75+5639.53+2070.75C5630.27+2042.97+5590.58+2033.52+5598.41+1994.41C5663.31+2007.39+5617.78+2000.55+5736.44+1997.34C5737.91+1992.94+5737.91+1992.94+5739.38+1988.53C5786.45+1988.53+5936.09+1927.13+5950.88+1882.78C5965.79+1882.78+5969.68+1879.23+5974.38+1865.16C6083.56+1865.16+6163.5+1621.97+6253.41+1592C6253.41+1547.37+6331.75+1499.9+6341.53+1451C6373.4+1291.67+6416.62+1238.03+6406.16+1033.91C6404.8+1007.41+6387.93+898.612+6353.28+887.062C6353.28+881.188+6353.28+881.187+6353.28+875.312C6327.5+866.719+6313.92+813.96+6285.72+801.875C6182.09+757.464+6147.64+734.028+6026.28+735.219ZM5907.31+991.688C5976.3+986.236+5942.82+1194.94+5936.19+1251.28C5919.1+1396.52+5761.5+1898.93+5586.66+1923.91C5557.14+1928.12+5577.34+1691.16+5583.72+1662.47C5625.48+1474.53+5700.58+1077.73+5892.12+995.719C5897.67+993.343+5902.71+992.051+5907.31+991.688Z" fill="#040404" stroke-linecap="round" opacity="1" stroke-linejoin="round"/>
<path stroke="#040404" stroke-width="1" d="M4091.59+1920.96C4116.37+1929.22+4231.54+1646.93+4250.2+1609.61C4349.12+1411.77+4560.16+754.873+4775.97+754.873C4889.32+754.873+4884.65+1099.96+4884.65+1151.4C4884.65+1257.08+4678.82+1717.39+4596.8+1744.73C4596.8+1750.6+4596.8+1750.6+4596.8+1756.48C4583.48+1760.91+4538.05+1824.25+4538.05+1838.72C4510.36+1847.95+4502.5+1905.4+4473.43+1915.09C4473.43+1930+4469.88+1933.89+4455.81+1938.59C4455.81+2049.88+4050.22+2338.79+4018.16+2434.98C4003.24+2434.98+3999.35+2438.53+3994.66+2452.6C3988.79+2452.6+3988.79+2452.6+3982.91+2452.6C3974.26+2478.55+3901.02+2498.2+3877.17+2499.6C3683.45+2510.99+3638.46+2370.92+3586.38+2214.69C3477.41+1887.78+3457.14+1526.63+3457.14+1186.65C3457.14+930.773+3539.92+679.942+3836.05+725.501C3912.94+737.329+3985.05+773.149+4032.84+840.053C4079.96+906.017+4084.63+1029.81+4085.71+1110.28C4089.34+1380.49+4089.63+1650.73+4091.59+1920.96Z" fill="#040404" stroke-linecap="round" opacity="1" stroke-linejoin="round"/>
<path stroke="#1a1900" stroke-width="1" d="M9528.44+1524.43C9564.4+1536.42+9567.76+1722.72+9604.81+1724.17C9677.2+1726.99+9749.71+1724.17+9822.16+1724.17C9823.63+1728.57+9823.63+1728.57+9825.1+1732.98C9764.31+1753.24+9701.89+1824.34+9648.87+1862.22C9679.04+1922.57+9682.71+2000.4+9713.49+2061.95C9464.12+1978.83+9631.04+1888.79+9358.08+2070.76C9314.37+1852.21+9554.31+1950.77+9249.4+1732.98C9318.92+1732+9388.52+1733.79+9457.94+1730.04C9477.63+1728.98+9518.28+1548.14+9528.44+1524.43Z" fill="#1a1900" stroke-linecap="round" opacity="1" stroke-linejoin="round"/>
</g>
</svg>
