<svg xmlns="http://www.w3.org/2000/svg" width="1240" height="1240"><path d="M567 2.096c-47.334 4.089-97.879 14.597-144 29.938-34.377 11.435-83.065 33.54-114.5 51.984C144.933 179.992 34.387 343.854 7.56 530.103 3.068 561.289 1.675 581.871 1.611 618c-.077 43.719 2.518 73.573 9.907 114 7.139 39.056 21.116 86.711 35.929 122.5 8.5 20.537 27.056 58.049 37.595 76 83.231 141.772 216.262 243.782 373.458 286.371 36.328 9.843 78.039 16.975 115.25 19.708l9.25.679V983.123l-4.75-.642c-72.489-9.795-132.669-34.953-186.75-78.07-13.668-10.897-45.49-42.609-55.908-55.714-40.033-50.361-65.818-107.944-75.986-169.697-4.075-24.751-4.925-38.254-4.299-68.288.567-27.213 1.633-38.383 5.745-60.212 18.686-99.192 79.031-187.144 165.932-241.841 15.835-9.968 48.45-26.01 66.016-32.472 23.902-8.792 50.615-15.599 73.5-18.727 6.6-.903 13.013-1.834 14.25-2.07l2.25-.428V1l-3.25.138c-1.788.075-7.525.506-12.75.958m91 125.885v126.981l2.25.464c1.237.255 6.075.956 10.75 1.557 83.346 10.711 166.017 54.949 222.395 119.007 33.665 38.249 56.972 78.124 73.099 125.058C970.365 512.315 978 539.65 978 542.243c0 .416-72 .757-160 .757H658v152h160c101.205 0 160 .352 160 .957 0 .526-1.543 6.939-3.428 14.25-26.336 102.113-95.303 187.706-189.544 235.237-39.087 19.713-76.052 30.913-122.278 37.048l-4.75.631V1237h2.839c1.562 0 10-.685 18.75-1.522 172.806-16.527 331.037-105.192 435.406-243.978 71.36-94.892 112.702-203.995 122.551-323.417 1.83-22.185 2.082-71.13.478-92.583-6.139-82.077-25.867-155.258-61.463-228-32.558-66.532-70.377-118.777-124.176-171.541-45.837-44.956-95.019-80.176-152.885-109.485-70.264-35.588-143.799-56.706-222.743-63.97-8.942-.823-16.819-1.498-17.507-1.5-.993-.003-1.25 26.057-1.25 126.977" fill="undefined" fill-rule="evenodd"/></svg>